<?xml version="1.0" standalone="no"?>
<!DOCTYPE svg PUBLIC "-//W3C//DTD SVG 20010904//EN"
 "http://www.w3.org/TR/2001/REC-SVG-20010904/DTD/svg10.dtd">
<svg version="1.0" xmlns="http://www.w3.org/2000/svg"
 width="700.000000pt" height="700.000000pt" viewBox="0 0 700.000000 700.000000"
 preserveAspectRatio="xMidYMid meet">
<metadata>
Created by potrace 1.14, written by Peter Selinger 2001-2017
</metadata>
<g transform="translate(0.000000,700.000000) scale(0.100000,-0.100000)"
fill="#000000" stroke="none">
<path d="M2070 5314 l0 -1164 -625 0 c-672 0 -665 0 -711 -51 -37 -41 -42 -79
-41 -271 2 -207 5 -217 84 -309 25 -30 64 -76 87 -103 67 -80 220 -260 231
-272 5 -6 28 -33 50 -59 22 -27 120 -143 219 -259 98 -116 197 -233 220 -260
38 -46 114 -135 221 -261 23 -27 94 -111 156 -185 63 -74 175 -207 249 -294
74 -87 191 -225 259 -305 68 -80 143 -168 167 -196 23 -27 122 -144 219 -260
98 -116 189 -224 204 -240 14 -17 50 -59 80 -95 80 -95 128 -137 201 -172 85
-42 187 -45 265 -8 114 54 167 111 665 705 46 55 87 102 90 105 3 3 55 64 115
135 60 72 119 141 131 155 12 14 90 106 174 205 84 99 172 203 195 230 77 90
187 220 204 240 33 40 466 550 476 561 5 6 28 33 50 59 43 52 210 248 280 330
291 339 301 354 314 420 12 60 11 298 0 339 -10 35 -44 72 -84 93 -26 14 -111
16 -677 16 l-647 0 0 1156 c0 636 -1 1161 -1 1168 0 8 -345 11 -1410 11
l-1410 0 0 -1164z"/>
</g>
</svg>
