<?xml version="1.0" encoding="utf-8"?>
<!-- Generator: Adobe Illustrator 26.3.1, SVG Export Plug-In . SVG Version: 6.00 Build 0)  -->
<svg version="1.1" id="Layer_1" xmlns="http://www.w3.org/2000/svg" xmlns:xlink="http://www.w3.org/1999/xlink" x="0px" y="0px"
	 viewBox="0 0 512 512" style="enable-background:new 0 0 512 512;" xml:space="preserve">
<style type="text/css">
	.st0{fill:none;stroke:#5AB0CA;stroke-width:5;stroke-miterlimit:10;}
	.st1{fill-rule:evenodd;clip-rule:evenodd;fill:#49ADC9;}
	.st2{fill:#FFFFFF;}
	.st3{fill-rule:evenodd;clip-rule:evenodd;fill:#FFFFFF;}
</style>
<rect width="512" height="512"/>
<path class="st0" d="M33.7,259.7v-184c0-22.1,17.9-40,40-40H256"/>
<path class="st0" d="M479.2,258.9v184c0,22.1-17.9,40-40,40H256.9"/>
<g>
	<path class="st1" d="M152.9,329.5v-12.4h62v9.3l-6.2,3.1h-9.3v6.2h18.6l3.1,3.1h3.1v-6.2h27.9l6.2,6.2h34.1l6.2,6.2h93.1v-6.2h46.5
		v21.7h-46.5v-6.2h-93.1v9.3h-9.3v-3.1h-6.2v34.1h6.2v6.2h-18.6v-6.2h6.2v-31l-6.2-6.2h-6.2l-3.1,3.1h-31l-3.1,3.1h-9.3v15.5h-6.2
		v-12.4h-31v6.2l-9.3-3.1h-6.2l-15.5,9.3v12.4h-12.4l-3.1-9.3l12.4-12.4v-6.2l-3.1-6.2h-24.8l-3.1,6.2v3.1l-3.1,6.2H97.1l-12.4,9.3
		h-9.3V345l9.3-6.2h62l3.1-3.1h18.6v-6.2H152.9z M84.7,369.8v-15.5h24.8v3.1L94,369.8H84.7z M165.3,363.6h6.2v3.1h-6.2V363.6z"/>
	<rect x="249.1" y="118.5" class="st2" width="12.4" height="155.1"/>
	<rect id="Rectangle_1_copy" x="177.7" y="189.9" class="st2" width="158.2" height="12.4"/>
	<path class="st3" d="M255.3,134c34.3,0,62,27.8,62,62s-27.8,62-62,62s-62-27.8-62-62S221,134,255.3,134z M255.3,149.5
		c25.7,0,46.5,20.8,46.5,46.5s-20.8,46.5-46.5,46.5s-46.5-20.8-46.5-46.5S229.6,149.5,255.3,149.5z"/>
</g>
</svg>
