<?xml version="1.0" encoding="utf-8"?>
<!-- Generator: Adobe Illustrator 26.3.1, SVG Export Plug-In . SVG Version: 6.00 Build 0)  -->
<svg version="1.1" id="Layer_1" xmlns="http://www.w3.org/2000/svg" xmlns:xlink="http://www.w3.org/1999/xlink" x="0px" y="0px"
	 viewBox="0 0 512 512" style="enable-background:new 0 0 512 512;" xml:space="preserve">
<style type="text/css">
	.st0{fill:none;stroke:#5AB0CA;stroke-width:5;stroke-miterlimit:10;}
	.st1{fill-rule:evenodd;clip-rule:evenodd;fill:#FFFFFF;}
	.st2{fill-rule:evenodd;clip-rule:evenodd;fill:#49ADC9;}
</style>
<rect width="512" height="512"/>
<path class="st0" d="M33.7,259.7v-184c0-22.1,17.9-40,40-40H256"/>
<path class="st0" d="M479.2,258.9v184c0,22.1-17.9,40-40,40H256.9"/>
<g id="HD2-AT-2">
	<path class="st1" d="M95.7,170.1l6.3,9.4l113.2-22l9.4,50.3l56.6-50.3l6.3,37.7l128.9-15.7v-9.4l-119.5,12.6l-9.4-50.3L234,182.6
		l-6.3-37.7L95.7,170.1z"/>
	<path class="st2" d="M435.2,299h-12.6l-9.4,9.4V321l-3.1,3.1h-6.3l-6.3-6.3h-22l-3.1,3.1h-3.1v-3.1h-6.3l-3.1,6.3h-3.1v-6.3h-6.3
		l-3.1,6.3H344v-6.3h-6.3l-3.1,6.3h-3.1v-6.3h-18.9v34.6h-15.7v-34.6h-25.1v6.3h-12.6L218.3,387h-12.6l-28.3-15.7v-12.6L190,343
		v-12.6l-3.1-6.3H168v-6.3h-44l-31.4,34.6H76.8l-3.1-3.1v-66h18.9v-3.1h59.7v3.1h9.4v-3.1h15.7l18.9-22h12.6l3.1-3.1h22l3.1,3.1H256
		l9.4,9.4v9.4h18.9l3.1,3.1h116.3l3.1-3.1h3.1l6.3,9.4h22v9.4L435.2,299z M196.3,374.4l3.1,3.1H212l18.9-25.1v-6.3h-22L196.3,365
		V374.4z M215.1,264.4h-12.6l-12.6,9.4v3.1h18.9l6.3-9.4V264.4z M221.4,330.4v9.4h15.7v-9.4H221.4z M265.4,280.1l-12.6-15.7H234v6.3
		h12.6l12.6,12.6h6.3V280.1z"/>
</g>
</svg>
