<?xml version="1.0" encoding="utf-8"?>
<!-- Generator: Adobe Illustrator 26.3.1, SVG Export Plug-In . SVG Version: 6.00 Build 0)  -->
<svg version="1.1" id="Layer_1" xmlns="http://www.w3.org/2000/svg" xmlns:xlink="http://www.w3.org/1999/xlink" x="0px" y="0px"
	 viewBox="0 0 512 512" style="enable-background:new 0 0 512 512;" xml:space="preserve">
<style type="text/css">
	.st0{fill:none;stroke:#5AB0CA;stroke-width:5;stroke-miterlimit:10;}
	.st1{fill-rule:evenodd;clip-rule:evenodd;fill:#FFFFFF;}
	.st2{fill:#49ADC9;}
	.st3{fill-rule:evenodd;clip-rule:evenodd;fill:#49ADC9;}
</style>
<rect width="512" height="512"/>
<path class="st0" d="M33.7,259.7v-184c0-22.1,17.9-40,40-40H256"/>
<path class="st0" d="M479.2,258.9v184c0,22.1-17.9,40-40,40H256.9"/>
<g>
	<path class="st1" d="M75.3,240.9h58v64.8h68.2v-64.8h58V425H75.3V240.9z M99.2,339.8H164v6.8c-0.1,1.8,1.3,3.3,3.1,3.4
		c0.1,0,0.2,0,0.3,0h47.7c0,0,20.5,8.1,20.5,15.8c0,7.7-20.5,14.9-20.5,14.9h-47.7c-1.8-0.1-3.3,1.3-3.4,3.1c0,0.1,0,0.2,0,0.3v6.8
		H99.2V339.8z"/>
	<rect x="320.8" y="179.6" class="st2" width="30.7" height="34.1"/>
	<path class="st3" d="M307.1,179.6h-40.9l-30.7-30.7v78.4H273v146.6H406l30.7-30.7V148.9L406,179.6h-40.9v47.7h-58V179.6z"/>
	<path class="st3" d="M235.5,131.8l37.5,34.1h126.1l37.5-34.1V94.3H235.5V131.8z"/>
</g>
</svg>
