<?xml version="1.0" encoding="utf-8"?>
<!-- Generator: Adobe Illustrator 26.3.1, SVG Export Plug-In . SVG Version: 6.00 Build 0)  -->
<svg version="1.1" id="Layer_1" xmlns="http://www.w3.org/2000/svg" xmlns:xlink="http://www.w3.org/1999/xlink" x="0px" y="0px"
	 viewBox="0 0 512 512" style="enable-background:new 0 0 512 512;" xml:space="preserve">
<style type="text/css">
	.st0{fill:none;stroke:#C9B269;stroke-width:5;stroke-miterlimit:10;}
	.st1{fill-rule:evenodd;clip-rule:evenodd;fill:#C9B269;}
	.st2{fill-rule:evenodd;clip-rule:evenodd;fill:#FFFFFF;}
</style>
<rect width="512" height="512"/>
<path class="st0" d="M33.7,259.7v-184c0-22.1,17.9-40,40-40H256"/>
<path class="st0" d="M479.2,258.9v184c0,22.1-17.9,40-40,40H256.9"/>
<g id="Upload-2">
	<path id="Shape_4_copy_2" class="st1" d="M72.3,439.7v-62.3l62.3,62.3H72.3z M439.7,439.7v-62.3l-62.3,62.3H439.7z M439.7,72.3
		v62.3l-62.3-62.3H439.7z M72.3,72.3v62.3l62.3-62.3H72.3z"/>
	<path class="st2" d="M87.9,302.7v31.1L119,365H393l31.1-31.1v-31.1h-137v43.6h-62.3v-43.6H87.9z"/>
	<path class="st2" d="M140.8,290.2V147h230.4v143.2H140.8z M256,165.7l-68.5,71.6h37.4v43.6h62.3v-43.6h37.4L256,165.7z"/>
</g>
</svg>
