<?xml version="1.0" encoding="utf-8"?>
<!-- Generator: Adobe Illustrator 26.3.1, SVG Export Plug-In . SVG Version: 6.00 Build 0)  -->
<svg version="1.1" id="Layer_1" xmlns="http://www.w3.org/2000/svg" xmlns:xlink="http://www.w3.org/1999/xlink" x="0px" y="0px"
	 viewBox="0 0 512 512" style="enable-background:new 0 0 512 512;" xml:space="preserve">
<style type="text/css">
	.st0{fill:none;stroke:#DD7B6C;stroke-width:5;stroke-miterlimit:10;}
	.st1{fill-rule:evenodd;clip-rule:evenodd;fill:#DD7B6C;}
	.st2{fill-rule:evenodd;clip-rule:evenodd;fill:#FFFFFF;}
</style>
<rect width="512" height="512"/>
<path class="st0" d="M33.7,259.7v-184c0-22.1,17.9-40,40-40H256"/>
<path class="st0" d="M479.2,258.9v184c0,22.1-17.9,40-40,40H256.9"/>
<g>
	<path class="st1" d="M221,151c0,0-25.6-5.2-41.1,10.2L207,74l24.5,24.5v22.6C224.9,126.8,220.2,136.1,221,151z M168.5,196.5
		c0,0-31.9-0.8-44.2,35H98.5l-24.5-28l96.9-26.7C169.1,183.2,168.3,189.8,168.5,196.5z"/>
	<path id="Shape_24_copy_2" class="st1" d="M343.5,151c0,0,5.1-40.5-42-38.5l-0.5-0.2L315.5,74l59.5,35v45.7
		C368.8,151.9,359.1,150,343.5,151z M168.5,291c0,0-7.8,50.2,52.5,45.5c-1.6,13.8,4.7,27.3,16.3,35H109l-35-56l77-29.3
		C156.7,288.1,162.6,289.7,168.5,291z M343.5,336.5c12.2,0.8,24.5,0.1,36.7-1.8l54.3,54.3l3.5,49l-52.5-7l-56-59.5h-5.1
		C336.3,363.8,343.5,350.7,343.5,336.5z"/>
	<path id="Shape_24_copy" class="st2" d="M395.4,276.9h-35.7c11.9,0.1,21.5,9.8,21.5,21.8c0,0.5,0,0.9-0.1,1.4
		c0.9,11.4-7.6,21.3-18.9,22.3c-0.8,0.1-1.6,0.1-2.5,0.1h-49.9c10,0.2,18,8.4,17.9,18.4c0,0.3,0,0.7,0,1c0.7,9.7-6.6,18.2-16.3,19
		c-0.5,0-1,0.1-1.5,0.1h-28.5v0.2h-28.8c-9.7,0-17.5-7.8-17.6-17.4c0-0.5,0-1.1,0.1-1.6c-0.8-9.9,6.5-18.6,16.4-19.4
		c0.4,0,0.7,0,1.1-0.1h-49c0,0-21,0.7-21-22.3c0-23.1,21-23.2,21-23.2h-35c0,0-31.5-0.3-31.5-32.8s31.5-33.7,31.5-33.7h35
		c-11.6,0-21-9.4-21-21c0-0.4,0-0.8,0-1.2c-0.6-12.2,8.8-22.6,21-23.2h46.1c1,0.1,1.9,0.1,2.9,0h-2.9c-5-0.4-14.6-3.2-14.6-18.9
		c0-21.2,17.5-19.6,17.5-19.6h57.3c0,0,17.8-1.6,17.8,19.6c0,15.7-9.8,18.5-14.9,18.9h-3c1,0.1,2,0.1,3,0h47c0,0,21.4,1,21.4,23.2
		s-21.4,22.2-21.4,22.2h35.7c0,0,32.1,1.3,32.1,33.7S395.4,276.9,395.4,276.9z"/>
</g>
</svg>
