<?xml version="1.0" encoding="utf-8"?>
<!-- Generator: Adobe Illustrator 26.3.1, SVG Export Plug-In . SVG Version: 6.00 Build 0)  -->
<svg version="1.1" id="Layer_1" xmlns="http://www.w3.org/2000/svg" xmlns:xlink="http://www.w3.org/1999/xlink" x="0px" y="0px"
	 viewBox="0 0 512 512" style="enable-background:new 0 0 512 512;" xml:space="preserve">
<style type="text/css">
	.st0{fill:none;stroke:#DD7B6C;stroke-width:5;stroke-miterlimit:10;}
	.st1{fill-rule:evenodd;clip-rule:evenodd;fill:#DD7B6C;}
	.st2{fill:#FFFFFF;}
</style>
<rect width="512" height="512"/>
<path class="st0" d="M33.7,259.7v-184c0-22.1,17.9-40,40-40H256"/>
<path class="st0" d="M479.2,258.9v184c0,22.1-17.9,40-40,40H256.9"/>
<g>
	<path id="queue_copy_2" class="st1" d="M74.6,203.7l101.2-27.9l31.4-101.2L231.6,99v132.6H99L74.6,203.7z"/>
	<path id="Ellipse_1_copy_5" class="st1" d="M385.1,430.5l-55.8-59.3h-34.9c0-19.3-15.6-34.9-34.9-34.9c-13.4,0-25.6,7.7-31.4,19.8
		c-8.3-17.3-29.1-24.7-46.5-16.3c-7.1,3.4-12.9,9.2-16.3,16.3c-8.3-17.3-29.2-24.7-46.5-16.3c-7.9,3.8-14.1,10.5-17.3,18.6l-26.9-43
		L249,249l66.3-174.5l43.5,25.6c-18.6,4.8-29.8,23.9-24.9,42.5c2.6,9.9,9.4,18.2,18.6,22.6c-17.3,8.3-24.7,29.1-16.3,46.5
		c3.4,7.1,9.2,12.9,16.3,16.3c-17.3,8.4-24.6,29.3-16.2,46.6c6.9,14.3,22.7,22.1,38.3,19v35.6l59.3,59.3l3.5,48.9L385.1,430.5z"/>
	<circle class="st2" cx="133.9" cy="371.1" r="27.9"/>
	<circle id="Ellipse_1_copy" class="st2" cx="196.7" cy="371.1" r="27.9"/>
	<circle id="Ellipse_1_copy_2" class="st2" cx="259.5" cy="371.1" r="27.9"/>
	<circle id="Ellipse_1_copy_9" class="st2" cx="367.7" cy="259.5" r="27.9"/>
	<circle id="Ellipse_1_copy_10" class="st2" cx="367.7" cy="196.7" r="27.9"/>
	<circle id="Ellipse_1_copy_11" class="st2" cx="367.7" cy="133.9" r="27.9"/>
</g>
</svg>
