<?xml version="1.0" encoding="utf-8"?>
<!-- Generator: Adobe Illustrator 26.3.1, SVG Export Plug-In . SVG Version: 6.00 Build 0)  -->
<svg version="1.1" id="Layer_1" xmlns="http://www.w3.org/2000/svg" xmlns:xlink="http://www.w3.org/1999/xlink" x="0px" y="0px"
	 viewBox="0 0 512 512" style="enable-background:new 0 0 512 512;" xml:space="preserve">
<style type="text/css">
	.st0{fill:none;stroke:#DD7B6C;stroke-width:5;stroke-miterlimit:10;}
	.st1{fill-rule:evenodd;clip-rule:evenodd;fill:#DD7B6C;}
	.st2{fill-rule:evenodd;clip-rule:evenodd;fill:#FFFFFF;}
</style>
<rect width="512" height="512"/>
<path class="st0" d="M33.7,259.7v-184c0-22.1,17.9-40,40-40H256"/>
<path class="st0" d="M479.2,258.9v184c0,22.1-17.9,40-40,40H256.9"/>
<g>
	<path id="queue_copy_2_00000176002228644121638910000004018104878665011879_" class="st1" d="M72.2,202.4L174,174.3l31.6-101.8
		l24.6,24.6v133.4H96.8L72.2,202.4z"/>
	<path class="st1" d="M384.6,430.5l-56.2-59.7h-65.7l2.6-66.7l-45.6-28.1h-45.8l73.9-28.1l26.1-68.7l9,9v38.6l31.6,31.6H374v70.2
		l59.7,59.7l3.5,49.1L384.6,430.5z M360,135.7h-69.6l24-63.2l59.7,35.1v36.1L360,135.7z M72.2,314.7l42.7-16.2l27.5,30.3v42.1h-35.1
		L72.2,314.7z"/>
	<path class="st1" d="M461.8,307.6"/>
	<path class="st2" d="M124.9,290.1H188l10.5,14v-14l17.5,3.5l31.6,14v63.2l-17.5-14v-21.1h-21.1l-7-7h-10.5v38.6h28.1l14,21.1H181
		l-24.6-24.6v-42.1L124.9,290.1z"/>
	<path class="st2" d="M268.8,146.2l59.7,3.5l10.5,14l3.5-14h14l31.6,17.5v63.2l-17.5-17.5v-17.5h-21.1l-3.5-7h-14v38.6H360
		l17.5,17.5h-56.2l-21.1-21.1l-3.5-42.1L268.8,146.2z"/>
</g>
</svg>
