<?xml version="1.0" encoding="utf-8"?>
<!-- Generator: Adobe Illustrator 26.3.1, SVG Export Plug-In . SVG Version: 6.00 Build 0)  -->
<svg version="1.1" id="Layer_1" xmlns="http://www.w3.org/2000/svg" xmlns:xlink="http://www.w3.org/1999/xlink" x="0px" y="0px"
	 viewBox="0 0 512 512" style="enable-background:new 0 0 512 512;" xml:space="preserve">
<style type="text/css">
	.st0{fill:none;stroke:#5AB0CA;stroke-width:5;stroke-miterlimit:10;}
	.st1{fill-rule:evenodd;clip-rule:evenodd;fill:#49ADC9;}
	.st2{fill-rule:evenodd;clip-rule:evenodd;fill:#FFFFFF;}
</style>
<rect width="512" height="512"/>
<path class="st0" d="M33.7,259.7v-184c0-22.1,17.9-40,40-40H256"/>
<path class="st0" d="M479.2,258.9v184c0,22.1-17.9,40-40,40H256.9"/>
<g id="HD2-EAT-2">
	<path class="st1" d="M73.2,347.9v-28.1l18.8-15.6v-15.6h43.8l9.4-9.4h6.3v15.6h18.8l9.4,3.1l3.1,6.3h71.9l12.5-9.4h90.6v6.3
		l12.5,3.1l3.1,9.4h59.4l6.3,6.3v53.1l-6.3,6.3h-68.8v3.1h-15.6v-3.1h-75v3.1h-6.3v-3.1h-40.6v3.1h-81.3v-3.1H79.4l-6.3-6.3V347.9z"
		/>
	<path id="Shape_15_copy" class="st2" d="M310.7,213.5c-26,0-87.5-21.9-87.5-21.9h-21.9l-12.5,21.9h-46.9l12.5-28.1h-15.6l-9.4,28.1
		h-25l15.6-37.5v-3.1l-15.6-37.5h25l9.4,28.1h15.6l-12.5-28.1h46.9l12.5,21.9h21.9c0,0,61.5-21.9,87.5-21.9c26,0,100,21.9,100,21.9
		v34.4C410.7,191.6,336.7,213.5,310.7,213.5z"/>
</g>
</svg>
