<?xml version="1.0" encoding="utf-8"?>
<!-- Generator: Adobe Illustrator 26.3.1, SVG Export Plug-In . SVG Version: 6.00 Build 0)  -->
<svg version="1.1" id="Layer_1" xmlns="http://www.w3.org/2000/svg" xmlns:xlink="http://www.w3.org/1999/xlink" x="0px" y="0px"
	 viewBox="0 0 512 512" style="enable-background:new 0 0 512 512;" xml:space="preserve">
<style type="text/css">
	.st0{fill:none;stroke:#689552;stroke-width:5;stroke-miterlimit:10;}
	.st1{fill-rule:evenodd;clip-rule:evenodd;fill:#689552;}
	.st2{fill-rule:evenodd;clip-rule:evenodd;fill:#FFFFFF;}
</style>
<rect width="512" height="512"/>
<path class="st0" d="M33.7,259.7v-184c0-22.1,17.9-40,40-40H256"/>
<path class="st0" d="M479.2,258.9v184c0,22.1-17.9,40-40,40H256.9"/>
<g id="HD2-GS-2">
	<path id="Shape_12_copy_4" class="st1" d="M353.1,145c0,0-20.8-28.8-62.4-52h149.1v52H353.1z M360,228.3v48.6H219.6l-1.7-3.5
		l-3.5-3.5h-13.9l-3.5-3.5h-31.2v-6.9H197l3.5-3.5h13.9l3.5-3.5l3.5-6.9l3.5-3.5v-3.5l-3.5-3.5l-3.5-6.9l-3.5-3.5h-13.9l-3.5-3.5
		h-31.2v-10.4H197l3.5-3.5h13.9l3.5-3.5l3.5-6.9l3.5-3.5v-3.5l-3.5-3.5l-3.5-6.9l-3.5-3.5h-13.9l-3.5-3.5h-31.2v-6.9H197l3.5-3.5
		h13.9l3.5-3.5l3.5-6.9l3.5-3.5V145l-3.5-3.5l-3.5-6.9l-3.5-3.5h-13.9l-3.5-3.5h-31.2v-3.5h-17.3V93h76.3
		C224.8,93,360,92.9,360,228.3z M221.3,325.4l-3.5-6.9l-3.5-3.5h-13.9l-3.5-3.5h-13.9v-6.9H197l3.5-3.5h13.9l3.5-3.5l1.7-3.5h116.2
		v55.5H197l3.5-3.5h13.9l3.5-3.5l3.5-6.9l3.5-3.5v-3.5L221.3,325.4z M363.5,363.5l45.1,55.5H103.4l45.1-55.5H363.5z"/>
	<g>
		<path class="st2" d="M72.2,342.7h90.2l3.5-3.5h27.7l3.5-3.5h10.4l3.5-3.5v-3.5l-3.5-3.5H197l-3.5-3.5h-27.7l-3.5-3.5H72.2V342.7z"
			/>
		<path id="Shape_11_copy" class="st2" d="M72.2,297.6h90.2l3.5-3.5h27.7l3.5-3.5h10.4l3.5-3.5v-3.5l-3.5-3.5H197l-3.5-3.5h-27.7
			l-3.5-3.5H72.2V297.6z"/>
		<path id="Shape_11_copy_2" class="st2" d="M72.2,252.5h90.2l3.5-3.5h27.7l3.5-3.5h10.4l3.5-3.5v-3.5l-3.5-3.5H197l-3.5-3.5h-27.7
			l-3.5-3.5H72.2V252.5z"/>
		<path id="Shape_11_copy_3" class="st2" d="M72.2,204h90.2l3.5-3.5h27.7l3.5-3.5h10.4l3.5-3.5v-3.5l-3.5-3.5H197l-3.5-3.5h-27.7
			l-3.5-3.5H72.2V204z"/>
		<path id="Shape_11_copy_4" class="st2" d="M72.2,158.9h90.2l3.5-3.5h27.7l3.5-3.5h10.4l3.5-3.5V145l-3.5-3.5H197l-3.5-3.5h-27.7
			l-3.5-3.5H72.2V158.9z"/>
	</g>
</g>
</svg>
