<?xml version="1.0" encoding="utf-8"?>
<!-- Generator: Adobe Illustrator 26.3.1, SVG Export Plug-In . SVG Version: 6.00 Build 0)  -->
<svg version="1.1" id="Layer_1" xmlns="http://www.w3.org/2000/svg" xmlns:xlink="http://www.w3.org/1999/xlink" x="0px" y="0px"
	 viewBox="0 0 512 512" style="enable-background:new 0 0 512 512;" xml:space="preserve">
<style type="text/css">
	.st0{fill:none;stroke:#5AB0CA;stroke-width:5;stroke-miterlimit:10;}
	.st1{fill-rule:evenodd;clip-rule:evenodd;fill:#FFFFFF;}
	.st2{fill-rule:evenodd;clip-rule:evenodd;fill:#49ADC9;}
</style>
<rect width="512" height="512"/>
<path class="st0" d="M33.7,259.7v-184c0-22.1,17.9-40,40-40H256"/>
<path class="st0" d="M479.2,258.9v184c0,22.1-17.9,40-40,40H256.9"/>
<g id="HD2-GL-2">
	<path class="st1" d="M142.8,120.8h31.4v9.4h66v72.3h-66v9.4h-31.4V120.8z M259.1,130.3v72.3h78.6c0,0,34.6,0.2,34.6-34.6v-3.1
		c0,0,2.6-34.6-34.6-34.6H259.1z"/>
	<path class="st2" d="M136.5,274.9v-6.3h28.3l3.1-9.4h18.9v3.1h12.6v-3.1h6.3v6.3h9.4v-6.3h12.6v6.3h110v-6.3h22v3.1h9.4v-3.1h22
		l6.3,6.3h9.4l3.1,3.1h15.7v12.6h-6.3v15.7l6.3,6.3h12.6v15.7h-9.4l-6.3,6.3h-25.1l-3.1,3.1h-37.7v34.6h-22v-34.6h-9.4l-3.1-3.1
		h-37.7v22l-6.3,6.3h-9.4l-3.1,3.1h-34.6L212,391.2h-18.9l-6.3-6.3v-9.4L212,344v-9.4l-6.3-6.3h-31.4l-15.7-9.4v-9.4h-22v-6.3h-31.4
		v53.4l-9.4,6.3H80l-6.3-6.3v-91.2l6.3-6.3h15.7l9.4,6.3v9.4H136.5z"/>
</g>
</svg>
