<?xml version="1.0" encoding="utf-8"?>
<!-- Generator: Adobe Illustrator 26.3.1, SVG Export Plug-In . SVG Version: 6.00 Build 0)  -->
<svg version="1.1" id="Layer_1" xmlns="http://www.w3.org/2000/svg" xmlns:xlink="http://www.w3.org/1999/xlink" x="0px" y="0px"
	 viewBox="0 0 512 512" style="enable-background:new 0 0 512 512;" xml:space="preserve">
<style type="text/css">
	.st0{fill:none;stroke:#C9B269;stroke-width:5;stroke-miterlimit:10;}
	.st1{fill-rule:evenodd;clip-rule:evenodd;fill:#FFFFFF;}
	.st2{fill-rule:evenodd;clip-rule:evenodd;fill:#C9B269;}
</style>
<rect width="512" height="512"/>
<path class="st0" d="M33.7,259.7v-184c0-22.1,17.9-40,40-40H256"/>
<path class="st0" d="M479.2,258.9v184c0,22.1-17.9,40-40,40H256.9"/>
<g>
	<path id="Shape_5_copy" class="st1" d="M256,400h-90.8l-40.7-43.8l46.9,6.3l-6.3-37.6l34.4,34.4v-62.6l43.8,40.7
		c0,0,7.9-67.4,9.4-93.9c1.2-20.8-12.5-43.8-12.5-43.8s-0.2-0.1-34.4,3.1c-7.3,0.7-28.6-2.8-28.2-28.2c0.4-25.3,25-18.8,25-18.8
		s3.7-21.6,34.4-15.6c0,0-2.8-15.6,18.8-15.6V400z M256,400h90.8l40.7-43.8l-46.9,6.3l6.3-37.6l-34.4,34.4v-62.6l-43.8,40.7
		c0,0-7.9-67.4-9.4-93.9c-1.2-20.8,12.5-43.8,12.5-43.8s-0.2,0,37.6,3.1c7.3,0.6,25.4-2.8,25-28.2c-0.4-25.3-25-18.8-25-18.8
		s-3.7-21.6-34.4-15.6c0,0,2.8-15.6-18.8-15.6V400z"/>
	<path class="st1" d="M255.5,237.2c51.9,0,93.9,11.2,93.9,25s-42,25-93.9,25s-93.9-11.2-93.9-25S203.6,237.2,255.5,237.2z
		 M255.5,256c38,0,68.9-0.7,68.9,6.3c0,6.9-30.8,12.5-68.9,12.5s-68.9-5.6-68.9-12.5C186.6,255.3,217.5,256,255.5,256z"/>
	<path class="st2" d="M71.3,440.7v-62.6l62.6,62.6H71.3z M440.7,440.7v-62.6l-62.6,62.6H440.7z M440.7,71.3v62.6l-62.6-62.6H440.7z
		 M71.3,71.3v62.6l62.6-62.6H71.3z"/>
</g>
</svg>
