<?xml version="1.0" encoding="utf-8"?>
<!-- Generator: Adobe Illustrator 26.3.1, SVG Export Plug-In . SVG Version: 6.00 Build 0)  -->
<svg version="1.1" id="Layer_1" xmlns="http://www.w3.org/2000/svg" xmlns:xlink="http://www.w3.org/1999/xlink" x="0px" y="0px"
	 viewBox="0 0 512 512" style="enable-background:new 0 0 512 512;" xml:space="preserve">
<style type="text/css">
	.st0{fill:none;stroke:#689552;stroke-width:5;stroke-miterlimit:10;}
	.st1{fill-rule:evenodd;clip-rule:evenodd;fill:#689552;}
	.st2{fill-rule:evenodd;clip-rule:evenodd;fill:#FFFFFF;}
	.st3{fill:#FFFFFF;}
</style>
<rect width="512" height="512"/>
<path class="st0" d="M33.7,259.7v-184c0-22.1,17.9-40,40-40H256"/>
<path class="st0" d="M479.2,258.9v184c0,22.1-17.9,40-40,40H256.9"/>
<g id="HD2-HMG-2">
	<path id="Shape_16_copy" class="st1" d="M371.5,155.8c-12.6-18.7-28.8-34.6-47.7-47h113.9v47H371.5z M376.8,230.9v43.9H215.3V256
		h56.4l6.3-6.3l25.1-3.1l18.8-12.5l9.4-12.5l-9.4-12.5l-15.7-12.5v-6.3l15.7-12.5l9.4-12.5l-9.4-12.5L303,140.1l-25.1-3.1l-6.3-6.3
		h-56.4v-21.9h58.3C273.5,108.8,376.8,108.7,376.8,230.9z M358.2,290.5v50.1H241.7v-50.1H358.2z M379.4,353.1l34.4,50.1h-233
		l34.4-50.1H379.4z"/>
	<path id="Shape_5_copy_4" class="st2" d="M180.8,146.4V184h85.4l3.5-5.4h28.2l3.5-5.4H312l6.7-8.1l-6.7-8.1h-10.6l-3.5-5.4h-28.2
		l-3.5-5.4H180.8z"/>
	<path id="Shape_5_copy_5" class="st2" d="M180.8,202.8v37.6h85.4l3.5-5.4h28.2l3.5-5.4H312l6.7-8.1l-6.7-8.1h-10.6l-3.5-5.4h-28.2
		l-3.5-5.4H180.8z"/>
	<circle class="st3" cx="115.1" cy="133.8" r="28.2"/>
	<path class="st2" d="M74.3,165.2v125.3H90v115.9h50.1V290.5h15.7V165.2H74.3z"/>
</g>
</svg>
