<?xml version="1.0" encoding="utf-8"?>
<!-- Generator: Adobe Illustrator 26.3.1, SVG Export Plug-In . SVG Version: 6.00 Build 0)  -->
<svg version="1.1" id="Layer_1" xmlns="http://www.w3.org/2000/svg" xmlns:xlink="http://www.w3.org/1999/xlink" x="0px" y="0px"
	 viewBox="0 0 512 512" style="enable-background:new 0 0 512 512;" xml:space="preserve">
<style type="text/css">
	.st0{fill:none;stroke:#5AB0CA;stroke-width:5;stroke-miterlimit:10;}
	.st1{fill-rule:evenodd;clip-rule:evenodd;fill:#5DBCD6;}
	.st2{fill-rule:evenodd;clip-rule:evenodd;fill:#FFFFFF;}
</style>
<rect width="512" height="512"/>
<path class="st0" d="M33.7,259.7v-184c0-22.1,17.9-40,40-40H256"/>
<path class="st0" d="M479.2,258.9v184c0,22.1-17.9,40-40,40H256.9"/>
<g>
	<path class="st1" d="M146.8,287.6l26.2,0c0,1.8,1.4,3.2,3.2,3.2c0,0,0.1,0,0.1,0h3.3c1.7,0.1,3.2-1.3,3.3-3.1c0-0.1,0-0.1,0-0.2
		h9.8c0,1.8,1.4,3.2,3.1,3.3c0.1,0,0.1,0,0.2,0h3.3c1.7,0.1,3.2-1.2,3.3-2.9c0-0.1,0-0.2,0-0.3c0,0-0.8-3.3,9.8-3.3
		c0,0,3.3-0.5,3.3,6.6v26.2h19.7l6.6,6.6c0,0,9.8,0.1,9.8,3.3c3.3-0.4,6.6-0.4,9.8,0c5,0.8,10-9.8,26.2-9.8
		c16.3,0,22.9,9.8,22.9,9.8h6.6c1.3-2.4,3.9-3.7,6.6-3.3c6.9,0,42.6,3.3,42.6,3.3l26.2-3.3v3.3h13.1c6.5-1.6,13-2.7,19.7-3.3
		c6-0.1,6.6,6.6,6.6,6.6c4.6,9.1,5.8,19.6,3.3,29.5c0,0-7.5,7.2-19.7,0h-16.4l-3.3,3.3h-32.8c0,0-2.8,3.1,3.3,3.3
		c0,0,3.1,3.3-16.4,3.3l-3.3,3.3h-22.9v3.3h-3.3l-3.3,26.2c0,0-11.2,4.3-9.8-3.3c1.3-7.6,3.3-22.9,3.3-22.9l-3.3-6.6h-3.3v9.8h-29.5
		v9.8c0,0,2.9,1.7,0,3.3c-2.9,1.6-2.3,3.8-9.8,3.3v6.6l-6.6,6.6l3.3,6.6l-22.9-9.8l19.7-19.7c0.7-2.9-1.1-5.9-4.1-6.6
		c-0.8-0.2-1.7-0.2-2.5,0l-3.3-3.3v-6.6h-6.6v3.3h-13.1l-6.6,9.8h-16.4c0,0-3.2,0.9-3.3,6.6c-0.1,5.7,1.5,21.5-9.8,22.9
		c-1.6,1.8-4.3,2-6.1,0.4c-0.2-0.1-0.3-0.3-0.4-0.4c-3-3.6-2.4-38.7-39.3-39.3l-3.3-3.3h-39.3l-6.6-3.3v3.3c0,0-4.6,4.7-16.4,0
		c-6.2-2.4-4.4-44.5,0-49.2c7.2-7.5,22.9,0,22.9,0v-32.8l3.3-3.3h9.8l3.3,3.3H146.8z"/>
	<path class="st2" d="M359.9,185.9v-13.1h32.8v13.1H359.9z M343.7,143.9l23.2-23.2l9.3,9.3l-23.2,23.2L343.7,143.9z M317.3,212.2
		c-14.3,0-27-9.3-31.3-22.9H127.2v-19.7H286c5.4-17.3,23.8-26.9,41.1-21.4c17.3,5.4,26.9,23.8,21.4,41.1
		C344.2,202.9,331.6,212.2,317.3,212.2z M310.7,104h13.1v32.8h-13.1V104z M258.3,129.7l9.4-9.4l23.4,23.5l-9.4,9.4L258.3,129.7z
		 M291.1,215l-23.4,23.5l-9.4-9.4l23.4-23.5L291.1,215z M323.8,254.8h-13.1V222h13.1V254.8z M376.3,228.8l-9.3,9.3l-23.2-23.2
		l9.3-9.3L376.3,228.8z"/>
</g>
</svg>
