<?xml version="1.0" encoding="utf-8"?>
<!-- Generator: Adobe Illustrator 26.3.1, SVG Export Plug-In . SVG Version: 6.00 Build 0)  -->
<svg version="1.1" id="Layer_1" xmlns="http://www.w3.org/2000/svg" xmlns:xlink="http://www.w3.org/1999/xlink" x="0px" y="0px"
	 viewBox="0 0 512 512" style="enable-background:new 0 0 512 512;" xml:space="preserve">
<style type="text/css">
	.st0{fill:none;stroke:#5AB0CA;stroke-width:5;stroke-miterlimit:10;}
	.st1{fill-rule:evenodd;clip-rule:evenodd;fill:#49ADC9;}
	.st2{fill-rule:evenodd;clip-rule:evenodd;fill:#FFFFFF;}
</style>
<rect width="512" height="512"/>
<path class="st0" d="M33.7,259.7v-184c0-22.1,17.9-40,40-40H256"/>
<path class="st0" d="M479.2,258.9v184c0,22.1-17.9,40-40,40H256.9"/>
<g>
	<path class="st1" d="M309.4,296.8l9.4,9.4H413l6.3,6.3h9.4v3.1h9.4v3.1h-9.4l-3.1,3.1v3.1h6.3v3.1h-12.6l-9.4,15.7h-9.4v-3.1h-6.3
		v3.1h-40.8v-3.1H347v3.1h-6.3v-3.1l-6.3-3.1l-9.4,9.4H300v-18.8h-37.7V347h-25.1l-9.4,9.4h-22c0,0-12.1,17.6-9.4,25.1
		c3.1,8.7-6.3,9.4-6.3,9.4l-15.7-9.4c0,0-2.4-8.9,0-12.6c2.3-3.5,18.8-18.8,18.8-18.8v-12.6h-22l-3.1-3.1H143L130.4,347H89.6
		l-6.3,6.3H77l-3.1-3.1v-47.1L77,300h94.2l22-3.1v-3.1h12.6v3.1h6.3v-3.1h6.3v3.1h3.1v-3.1h18.8v3.1h9.4v-3.1h3.1v3.1h6.3v-3.1h3.1
		v3.1H309.4z M212,337.6h18.8v6.3l-6.3,6.3H212V337.6z"/>
	<path class="st2" d="M199.5,237.2h81.6l6.3-6.3h25.1l15.7-7.8l-15.7-7.9h-25.1l-6.3-6.3h-81.6V237.2z"/>
	<path id="Shape_39_copy" class="st2" d="M199.5,193.2h81.6l6.3-6.3h25.1l15.7-7.8l-15.7-7.9h-25.1l-6.3-6.3h-81.6V193.2z"/>
	<path id="Shape_39_copy_2" class="st2" d="M199.5,149.3h81.6l6.3-6.3h25.1l15.7-7.8l-15.7-7.9h-25.1l-6.3-6.3h-81.6V149.3z"/>
</g>
</svg>
