<?xml version="1.0" encoding="utf-8"?>
<!-- Generator: Adobe Illustrator 26.3.1, SVG Export Plug-In . SVG Version: 6.00 Build 0)  -->
<svg version="1.1" id="Layer_1" xmlns="http://www.w3.org/2000/svg" xmlns:xlink="http://www.w3.org/1999/xlink" x="0px" y="0px"
	 viewBox="0 0 512 512" style="enable-background:new 0 0 512 512;" xml:space="preserve">
<style type="text/css">
	.st0{fill:none;stroke:#5AB0CA;stroke-width:5;stroke-miterlimit:10;}
	.st1{fill-rule:evenodd;clip-rule:evenodd;fill:#FFFFFF;}
	.st2{fill-rule:evenodd;clip-rule:evenodd;fill:#5DBCD6;}
</style>
<rect width="512" height="512"/>
<path class="st0" d="M33.7,259.7v-184c0-22.1,17.9-40,40-40H256"/>
<path class="st0" d="M479.2,258.9v184c0,22.1-17.9,40-40,40H256.9"/>
<g>
	<path class="st1" d="M341.5,137.2l-9.5,4l-6.3,2.9h-25.3l-9.5,5.8H180V115h110.9l9.5,5.8h25.3l6.3,2.9l9.5,4l6.3,4.8L341.5,137.2z
		 M154.6,147V115h15.8v34.8h-15.8V147z M341.5,181.6l-9.5,4l-6.3,2.9h-25.3l-9.5,5.8H180v-34.8h110.9l9.5,5.8h25.3l6.3,2.9l9.5,4
		l6.3,4.8L341.5,181.6z M154.6,191.3v-31.9h15.8v34.8h-15.8V191.3z M341.5,225.9l-9.5,4l-6.3,2.9h-25.3l-9.5,5.8H180v-34.8h110.9
		l9.5,5.8h25.3l6.3,2.9l9.5,4l6.3,4.8L341.5,225.9z M154.6,235.7v-31.9h15.8v34.8h-15.8V235.7z"/>
	<path class="st2" d="M94.5,295.6h60.2l6.3-6.3h44.3l3.2-3.2h50.7l3.2,6.3h53.8l6.3,12.7h12.7v-3.2H351l3.2,3.2l57,3.2l3.2-3.2h19
		l3.2,3.2v6.3l-3.2,3.2h-19l-3.2-3.2H351v3.2h3.2v9.5h-19l9.5,57l6.3,6.3v6.3l-22.2-6.3v-6.3h6.3v-6.3l-9.5-3.2l-6.3-3.2v-3.2h6.3
		l-3.2-41.2h-6.3l-6.3,3.2v9.5l-28.5,31.7h-12.7l-3.2,3.2h-6.3l-3.2,6.3h-38l-6.3-3.2l-6.3-3.2v-47.5h6.3v-6.3h-6.3v3.2l-3.2,3.2
		v6.3c-0.6,1.4-1.7,2.6-3.2,3.2c-2.1,0.5-4.3,0.5-6.3,0l-3.2-3.2h-3.2v3.2l-12.7,22.2l-22.2-3.2l-12.7-3.2L123,339.9l-3.2-3.2h-9.5
		v3.2H104v-3.2H85l-6.3-6.3l-3.2-34.8H94.5z M88.1,314.6c3.1-1.1,6.4-1.1,9.5,0c1.5,1.3,0,6.3,0,6.3c-1-0.5-2.2-0.5-3.2,0
		c-0.5,1,0.7,3.3-3.2,3.2c-1.7-0.1-3.1-1.4-3.2-3.2C88.1,320.9,87.2,315.5,88.1,314.6z M142,327.3c-0.2-1.6,1-3,2.6-3.2
		c0.3,0,0.5,0,0.8,0c1.4-0.2,2.8,0.7,3,2.2c0.1,0.3,0,0.7,0,1h3.2c0.9,2,0.9,4.3,0,6.3c-0.9,1.2-2,2.3-3.2,3.2v6.3
		c-1.1,0.1-2.1,0.1-3.2,0c-2.2-0.8-4.4-1.9-6.3-3.2c-0.4-3.2-0.4-6.3,0-9.5C139.4,329,140.5,327.9,142,327.3z M161,352.6v-9.5
		l3.2-6.3c0,0,10.7,4.1,15.8,3.2c0.2,0-3.2,3.2-3.2,3.2l-6.3,9.5H161z M208.5,292.4h19v3.2c-2.1-0.4-4.2-0.4-6.3,0
		c-1.5,0.5-2.6,1.7-3.2,3.2h-9.5V292.4z M262.3,298.8v-3.2h6.3l3.2,3.2v6.3c-1.1,0.1-2.1,0.1-3.2,0
		C268,300.6,262.3,298.8,262.3,298.8z M278.2,295.6v3.2h9.5l3.2,3.2h3.2v-3.2h-3.2v-3.2H278.2z M300.3,295.6v3.2h3.2v3.2h3.2v-3.2
		L300.3,295.6z M294,295.6v3.2h3.2v3.2h3.2v-3.2L294,295.6z M338.4,317.8H332v-3.2c2.1,0.5,4.3,0.5,6.3,0V317.8z M259.2,324.1h6.3
		c0,0,3.4,0.3,3.2,6.3c0,0.8-0.5,2.2,3.2,3.2c2.1,0.2,4.2,0.2,6.3,0v3.2h-9.5c-1.7-0.1-3.1-1.4-3.2-3.2v-6.3h-6.3V324.1z
		 M281.3,324.1c0,0-4,1.5-3.2,3.2c0.1,0.1,6.3,0,6.3,0S285.5,325.9,281.3,324.1z M306.7,295.6v3.2h3.2v3.2h3.2v-3.2L306.7,295.6z
		 M240.2,292.4v3.2h-12.7v3.2h19v-6.3H240.2z M170.5,333.6c0,0-1.8,2.8,9.5,3.2c0,0,1.6-6.5-3.2-6.3
		C172.1,330.6,170.5,329.6,170.5,333.6z M195.8,327.3c-0.9,0.5-1.2,1.5-0.8,2.4c0.2,0.3,0.4,0.6,0.8,0.8c0,0,2.2,1.6,3.2,0
		c0.6-1,0.6-2.2,0-3.2C198.4,325,198.3,325.7,195.8,327.3z"/>
</g>
</svg>
