<?xml version="1.0" encoding="utf-8"?>
<!-- Generator: Adobe Illustrator 26.3.1, SVG Export Plug-In . SVG Version: 6.00 Build 0)  -->
<svg version="1.1" id="Layer_1" xmlns="http://www.w3.org/2000/svg" xmlns:xlink="http://www.w3.org/1999/xlink" x="0px" y="0px"
	 viewBox="0 0 512 512" style="enable-background:new 0 0 512 512;" xml:space="preserve">
<style type="text/css">
	.st0{fill:none;stroke:#5AB0CA;stroke-width:5;stroke-miterlimit:10;}
	.st1{fill-rule:evenodd;clip-rule:evenodd;fill:#49ADC9;}
	.st2{fill-rule:evenodd;clip-rule:evenodd;fill:#FFFFFF;}
</style>
<rect width="512" height="512"/>
<path class="st0" d="M33.7,259.7v-184c0-22.1,17.9-40,40-40H256"/>
<path class="st0" d="M479.2,258.9v184c0,22.1-17.9,40-40,40H256.9"/>
<g id="HD2-MG-2">
	<path class="st1" d="M438.1,319.8v9.3H270v18.7h-9.3v49.8h-34.2v-52.9h-24.9c-1.9,9.2-2.9,18.6-3.1,28c0,0-6.3,7.6-21.8-3.1
		c0,0-2.8-9,9.3-24.9v-9.3l-6.2-6.2h-68.5v6.2h3.1v6.2l-3.1,3.1h-9.3l-9.3-9.3h-6.2l-3.1,9.3h-9.3V298h24.9l6.2,9.3h15.6l3.1-3.1
		h21.8l12.5-6.2h49.8v-3.1h56v3.1h12.5v6.2h161.9v6.2h-6.2v9.3H438.1z M223.3,332.3h-18.7v9.3h18.7V332.3z"/>
	<path id="Shape_30_copy" class="st2" d="M341.6,251.3h-34.2v6.2H185.9v-37.4h121.4v6.2h34.2c0,0,12.5,9.3,12.5,12.5
		C354.1,242,341.6,251.3,341.6,251.3z M157.9,220.2h15.6v37.4h-15.6V220.2z"/>
	<path id="Shape_30_copy_2" class="st2" d="M341.6,198.4h-34.2v6.2H185.9v-37.4h121.4v6.2h34.2c0,0,12.5,9.3,12.5,12.5
		C354.1,189.1,341.6,198.4,341.6,198.4z M157.9,167.3h15.6v37.4h-15.6V167.3z"/>
	<path id="Shape_30_copy_3" class="st2" d="M341.6,145.5h-34.2v6.2H185.9v-37.4h121.4v6.2h34.2c0,0,12.5,9.3,12.5,12.5
		C354.1,136.2,341.6,145.5,341.6,145.5z M157.9,114.3h15.6v37.4h-15.6V114.3z"/>
</g>
</svg>
