<?xml version="1.0" encoding="utf-8"?>
<!-- Generator: Adobe Illustrator 26.3.1, SVG Export Plug-In . SVG Version: 6.00 Build 0)  -->
<svg version="1.1" id="Layer_1" xmlns="http://www.w3.org/2000/svg" xmlns:xlink="http://www.w3.org/1999/xlink" x="0px" y="0px"
	 viewBox="0 0 512 512" style="enable-background:new 0 0 512 512;" xml:space="preserve">
<style type="text/css">
	.st0{fill:none;stroke:#689552;stroke-width:5;stroke-miterlimit:10;}
	.st1{fill-rule:evenodd;clip-rule:evenodd;fill:#689552;}
	.st2{fill-rule:evenodd;clip-rule:evenodd;fill:#FFFFFF;}
</style>
<rect width="512" height="512"/>
<path class="st0" d="M33.7,259.7v-184c0-22.1,17.9-40,40-40H256"/>
<path class="st0" d="M479.2,258.9v184c0,22.1-17.9,40-40,40H256.9"/>
<g id="HD2-MS-2">
	<path id="Shape_9_copy" class="st1" d="M344.3,135.7c0,0-22.6-31.2-67.7-56.4h161.7v56.4H344.3z M351.9,225.9v52.6H171.4
		c0,0,33.8-84.3,33.8-105.3s-33.8-94-33.8-94h33.8C205.2,79.3,351.9,79.2,351.9,225.9z M325.5,357.5H194v-30.1l-22.6-22.6v-7.5
		h154.1V357.5z M148.9,391.3H194v-18.8h161.7l48.9,60.2H73.7l33.6-41.4H148.9z"/>
	<path class="st2" d="M156.4,271v41.4l22.6,22.6v41.4h-37.6v-297h15c0,0,33.8,73,33.8,94S156.4,271,156.4,271z"/>
	<path id="Shape_9_copy_2" class="st2" d="M130.1,271v41.4l-22.6,22.6v41.4h37.6v-297h-15c0,0-33.8,73-33.8,94S130.1,271,130.1,271z
		"/>
</g>
</svg>
