<?xml version="1.0" encoding="utf-8"?>
<!-- Generator: Adobe Illustrator 26.3.1, SVG Export Plug-In . SVG Version: 6.00 Build 0)  -->
<svg version="1.1" id="Layer_1" xmlns="http://www.w3.org/2000/svg" xmlns:xlink="http://www.w3.org/1999/xlink" x="0px" y="0px"
	 viewBox="0 0 512 512" style="enable-background:new 0 0 512 512;" xml:space="preserve">
<style type="text/css">
	.st0{fill:none;stroke:#DD7B6C;stroke-width:5;stroke-miterlimit:10;}
	.st1{fill-rule:evenodd;clip-rule:evenodd;fill:#DD7B6C;}
	.st2{fill-rule:evenodd;clip-rule:evenodd;fill:#FFFFFF;}
</style>
<rect width="512" height="512"/>
<path class="st0" d="M33.7,259.7v-184c0-22.1,17.9-40,40-40H256"/>
<path class="st0" d="M479.2,258.9v184c0,22.1-17.9,40-40,40H256.9"/>
<g>
	<path class="st1" d="M377.6,411.7c-1.1-37.3-6.8-67.3-15.1-91.4h51.7c16.1,27.8,24.5,59.3,24.5,91.4H377.6z M350.9,293.2
		c8.3-0.7,15.8-11,20.7-22.9c14,11.4,26.2,24.9,36.3,39.9h-49.2C356.3,304.1,353.7,298.5,350.9,293.2z M324.1,255.8
		c-8.9-9.1-19.1-16.8-30.3-22.8c10,2.1,19.8,5.1,29.3,8.9C323.3,246.4,323.6,251.2,324.1,255.8z M330.4,278
		c1.6,4.4,4.2,8.3,7.7,11.5c3.9,6.6,7.4,13.5,10.4,20.6h-85.7v-17.8c1-0.7,2.1-1.6,3.4-2.5c8.2-6.3,15.8-21.2,15.8-21.2
		s1.3-13.9,1.7-29.1C302.3,248.1,318.4,261.4,330.4,278z M162.9,320.3h89.7v91.4H147.4C147.6,380.6,152.9,349.7,162.9,320.3z
		 M232.3,239.4v26.8c0,0,11.5,17.5,16.9,23.7c1,1.2,2.2,2.3,3.4,3.4v17h-85.7C179.4,281,199.6,254,232.3,239.4z M194.6,239.7
		c9.4-3.3,19-5.9,28.8-7.7c-11.9,6.1-22.7,14.1-32.1,23.7C192.9,250.4,194,245.1,194.6,239.7z M104,310.2
		c10.8-16.1,24.1-30.4,39.4-42.3c4.3,12.3,11.2,25.1,21,25.3c-2.7,5.3-5.4,10.9-7.8,17L104,310.2L104,310.2z M137.8,411.7H73.2
		c0-32.1,8.4-63.6,24.5-91.4h55.1C144.6,344.4,138.9,374.4,137.8,411.7L137.8,411.7z M262.8,320.3h89.7c10,29.4,15.3,60.3,15.5,91.4
		H262.8V320.3z"/>
	<path class="st2" d="M151.1,259.4l10.2,20.3c0,0,4.5,7.6,10.2,0c4.2-6.3,7.6-13.2,10.2-20.3v-54.2c0,0,6.8-1.8,6.8-6.8v-67.7h-44
		v67.7c-0.3,3.5,2.3,6.5,5.8,6.8c0.3,0,0.7,0,1,0V259.4z M147.7,100.3c-1.8,0-3.3,1.4-3.4,3.2c0,0,0,0.1,0,0.1v3.4
		c-0.1,1.7,1.2,3.3,2.9,3.4c0.2,0,0.3,0,0.5,0h37.2c1.9,0,3.4-1.5,3.4-3.4v-3.4c0.1-1.8-1.3-3.3-3.1-3.4c-0.1,0-0.2,0-0.3,0H147.7z"
		/>
	<path id="Shape_5_copy" class="st2" d="M242.5,259.4l10.2,20.3c0,0,4.5,7.6,10.2,0c4.2-6.3,7.6-13.2,10.2-20.3v-54.2
		c0,0,6.8-1.8,6.8-6.8v-67.7h-44v67.7c-0.3,3.5,2.3,6.5,5.8,6.8c0.3,0,0.7,0,1,0V259.4z M239.1,100.3c-1.8,0-3.3,1.4-3.4,3.2
		c0,0,0,0.1,0,0.1v3.4c-0.1,1.7,1.2,3.3,2.9,3.4c0.2,0,0.3,0,0.5,0h37.2c1.9,0,3.4-1.5,3.4-3.4v-3.4c0.1-1.8-1.3-3.3-3.1-3.4
		c-0.1,0-0.2,0-0.3,0H239.1z"/>
	<path id="Shape_5_copy_2" class="st2" d="M333.8,259.4l10.2,20.3c0,0,4.5,7.6,10.2,0c4.2-6.3,7.6-13.2,10.2-20.3v-54.2
		c0,0,6.8-1.8,6.8-6.8v-67.7h-44v67.7c-0.3,3.5,2.3,6.5,5.8,6.8c0.3,0,0.7,0,1,0V259.4z M330.5,100.3c-1.8,0-3.3,1.4-3.4,3.2
		c0,0,0,0.1,0,0.1v3.4c-0.1,1.7,1.2,3.3,2.9,3.4c0.2,0,0.3,0,0.5,0h37.2c1.9,0,3.4-1.5,3.4-3.4v-3.4c0.1-1.8-1.3-3.3-3.1-3.4
		c-0.1,0-0.2,0-0.3,0H330.5z"/>
</g>
</svg>
