<?xml version="1.0" encoding="utf-8"?>
<!-- Generator: Adobe Illustrator 26.3.1, SVG Export Plug-In . SVG Version: 6.00 Build 0)  -->
<svg version="1.1" id="Layer_1" xmlns="http://www.w3.org/2000/svg" xmlns:xlink="http://www.w3.org/1999/xlink" x="0px" y="0px"
	 viewBox="0 0 512 512" style="enable-background:new 0 0 512 512;" xml:space="preserve">
<style type="text/css">
	.st0{fill:none;stroke:#DD7B6C;stroke-width:5;stroke-miterlimit:10;}
	.st1{fill-rule:evenodd;clip-rule:evenodd;fill:#DD7B6C;}
	.st2{fill-rule:evenodd;clip-rule:evenodd;fill:#FFFFFF;}
</style>
<rect width="512" height="512"/>
<path class="st0" d="M33.7,259.7v-184c0-22.1,17.9-40,40-40H256"/>
<path class="st0" d="M479.2,258.9v184c0,22.1-17.9,40-40,40H256.9"/>
<g>
	<path id="base-2" class="st1" d="M361.6,341.7h51.6c16,27.7,24.5,59.1,24.4,91.1h-61C375.5,395.6,369.8,365.7,361.6,341.7z
		 M293.1,254.6c46.5,9.8,87.3,37.4,113.8,76.9h-49.1C340.2,287.8,313.8,265.6,293.1,254.6z M347.6,331.5h-85.5v-77.6
		C307,265.2,332.8,296.9,347.6,331.5z M162.6,341.7H252v91.1H147.1C147.3,401.8,152.6,371,162.6,341.7z M252,253.9v77.6h-85.4
		C181.4,296.9,207.1,265.2,252,253.9z M156.3,331.5h-52.4c27.5-41.1,70.4-69.2,119.1-78C202,264.2,174.4,286.3,156.3,331.5z
		 M137.5,432.8H73.1c0-32,8.4-63.4,24.4-91.1h54.9C144.3,365.7,138.6,395.6,137.5,432.8z M351.6,341.7c10,29.3,15.2,60.1,15.5,91.1
		H262.1v-91.1H351.6z"/>
	<path class="st2" d="M225,159.4V64.9h-84.4l60.7,94.5H225z"/>
	<path class="st2" d="M289.1,64.9h84.4l-60.7,94.5h-23.6V64.9z"/>
	<path class="st2" d="M241.9,64.9h30.4v111.4h30.4l-43.9,67.5l-47.2-67.5h30.4"/>
</g>
</svg>
