<?xml version="1.0" encoding="utf-8"?>
<!-- Generator: Adobe Illustrator 26.3.1, SVG Export Plug-In . SVG Version: 6.00 Build 0)  -->
<svg version="1.1" id="Layer_1" xmlns="http://www.w3.org/2000/svg" xmlns:xlink="http://www.w3.org/1999/xlink" x="0px" y="0px"
	 viewBox="0 0 512 512" style="enable-background:new 0 0 512 512;" xml:space="preserve">
<style type="text/css">
	.st0{fill:none;stroke:#DD7B6C;stroke-width:5;stroke-miterlimit:10;}
	.st1{fill-rule:evenodd;clip-rule:evenodd;fill:#DD7B6C;}
	.st2{fill-rule:evenodd;clip-rule:evenodd;fill:#FFFFFF;}
</style>
<rect width="512" height="512"/>
<path class="st0" d="M33.7,259.7v-184c0-22.1,17.9-40,40-40H256"/>
<path class="st0" d="M479.2,258.9v184c0,22.1-17.9,40-40,40H256.9"/>
<g>
	<path id="Shape_31_copy_2" class="st1" d="M377.3,411.7c-1.1-37.1-6.8-67-15.2-91h52c16.2,27.6,24.7,59,24.7,91H377.3z
		 M367.4,307.2v-39.5c15.8,12,29.4,26.5,40.5,42.8h-43.8L367.4,307.2z M302.7,251.9v55.3l3.2,3.4h-44.1v-15.5l27.2-28.3v-23.4
		C293.8,245.9,298.4,248.7,302.7,251.9z M161.4,320.7h90.2v91H145.8C146,380.7,151.3,350,161.4,320.7z M224.4,243.4v23.4l27.2,28.5
		v15.3h-86.2C177.1,283.6,195.5,258.5,224.4,243.4z M102.2,310.6c15.4-22.8,35.9-41.9,59.8-55.8l16,15.2
		c-9.5,12.4-17.2,26.1-22.9,40.6H102.2z M136.2,411.7H71.2c0-32,8.5-63.4,24.7-91h55.4C143,344.7,137.3,374.6,136.2,411.7
		L136.2,411.7z M261.8,411.7v-91h53.7l19.3,20.2l17.8-18.5c9.7,28.8,14.7,58.9,15,89.2H261.8z"/>
	<g>
		<path class="st2" d="M156.3,236.4l22.1,23.6l22.1-23.6v-74.1c0,0,10.2-2.8,10.2-10.1V94.9h-64.7v57.7c0.3,5.4,4.7,9.7,10.2,9.7
			V236.4z"/>
		<path class="st2" d="M149.5,64.6c-1.8-0.1-3.3,1.3-3.4,3.1c0,0.1,0,0.2,0,0.3v3.4c-0.1,1.8,1.3,3.3,3.1,3.4c0.1,0,0.2,0,0.3,0
			h57.9c1.8,0.1,3.3-1.3,3.4-3c0-0.1,0-0.2,0-0.3v-3.4c0-1.9-1.5-3.4-3.4-3.4H149.5z"/>
		<path id="Shape_29_copy" class="st2" d="M231.2,263.4l22.1,23.6l22.1-23.6v-74.1c0,0,10.2-2.8,10.2-10.1v-57.3H221v57.7
			c0.3,5.4,4.7,9.7,10.2,9.7V263.4z"/>
		<path id="Shape_30_copy" class="st2" d="M224.4,91.5c-1.8-0.1-3.3,1.3-3.4,3.1c0,0.1,0,0.2,0,0.3v3.4c-0.1,1.8,1.3,3.3,3.1,3.4
			c0.1,0,0.2,0,0.3,0h57.9c1.8,0.1,3.3-1.3,3.4-3c0-0.1,0-0.2,0-0.3v-3.4c0-1.9-1.5-3.4-3.4-3.4H224.4z"/>
		<path id="Shape_29_copy_2" class="st2" d="M309.5,303.9l22.1,23.6l22.1-23.6v-74.1c0,0,10.2-2.8,10.2-10.1v-57.3h-64.7V220
			c0.3,5.4,4.7,9.7,10.2,9.7V303.9z"/>
		<path id="Shape_30_copy_2" class="st2" d="M302.7,132c-1.8-0.1-3.3,1.3-3.4,3.1c0,0.1,0,0.2,0,0.3v3.4c-0.1,1.8,1.3,3.3,3.1,3.4
			c0.1,0,0.2,0,0.3,0h57.9c1.8,0.1,3.3-1.3,3.4-3c0-0.1,0-0.2,0-0.3v-3.4c0-1.9-1.5-3.4-3.4-3.4H302.7z"/>
	</g>
</g>
</svg>
