<?xml version="1.0" encoding="utf-8"?>
<!-- Generator: Adobe Illustrator 26.3.1, SVG Export Plug-In . SVG Version: 6.00 Build 0)  -->
<svg version="1.1" id="Layer_1" xmlns="http://www.w3.org/2000/svg" xmlns:xlink="http://www.w3.org/1999/xlink" x="0px" y="0px"
	 viewBox="0 0 512 512" style="enable-background:new 0 0 512 512;" xml:space="preserve">
<style type="text/css">
	.st0{fill:none;stroke:#DD7B6C;stroke-width:5;stroke-miterlimit:10;}
	.st1{fill-rule:evenodd;clip-rule:evenodd;fill:#DD7B6C;}
	.st2{fill-rule:evenodd;clip-rule:evenodd;fill:#FFFFFF;}
</style>
<rect width="512" height="512"/>
<path class="st0" d="M33.7,259.7v-184c0-22.1,17.9-40,40-40H256"/>
<path class="st0" d="M479.2,258.9v184c0,22.1-17.9,40-40,40H256.9"/>
<g id="HD2-ORS-2">
	<path class="st1" d="M377.7,434.9c-1.1-37.4-6.8-67.4-15.1-91.5h51.8c16.1,27.8,24.6,59.4,24.5,91.5H377.7z M300,259.4v-2.1
		c44.2,10.9,82.8,38,108.1,75.8h-49.3C342.9,293.4,319.7,271.5,300,259.4z M215.3,259.4c-19.7,12-42.9,34-58.9,73.8h-52.7
		c26-38.9,65.9-66.3,111.5-76.6V259.4z M137.6,434.9H72.9c0-32.1,8.4-63.7,24.5-91.5h55.2C144.4,367.5,138.7,397.5,137.6,434.9z
		 M368.1,434.9H262.7v-44.6l20.3-23.2v-23.7h69.5C362.7,372.8,367.9,403.7,368.1,434.9z M348.6,333.2h-65.5v-16.9l16.9-13.6v-31.1
		C323.1,287,338.4,309.4,348.6,333.2z M215.3,271.6v31.1l16.9,13.6v16.9h-65.5C176.9,309.4,192.2,287,215.3,271.6z M162.7,343.4
		h69.5v23.7l20.3,23.2v44.6H147.2C147.4,403.7,152.7,372.8,162.7,343.4z"/>
	<path class="st2" d="M225.4,228.1h64.4v67.8l-16.9,13.6v54.2l-15.3,16.9l-15.3-16.9v-54.2l-16.9-13.6V228.1z"/>
	<path id="Rectangle_10_copy" class="st2" d="M289.9,140h-13.6c0-13.1-8.3-23.7-18.6-23.7S239,126.9,239,140h-13.6
		c0-32.5,13.6-33.9,13.6-33.9s-13.6-13.7-13.6-40.7H239c0,0,2.6,27.1,16.9,27.1h1.9c15.1,0,17.8-27.1,17.8-27.1h14.2
		c0,27-14.2,40.7-14.2,40.7S289.9,107.4,289.9,140z M289.9,140h-13.6c0,13.1-8.3,23.7-18.6,23.7S239,153.1,239,140h-13.6
		c0,32.5,13.6,33.9,13.6,33.9s-13.6,13.7-13.6,40.7H239c0,0,2.6-27.1,16.9-27.1h1.9c15.1,0,17.8,27.1,17.8,27.1h14.2
		c0-27-14.2-40.7-14.2-40.7S289.9,172.5,289.9,140z"/>
</g>
</svg>
