<?xml version="1.0" encoding="utf-8"?>
<!-- Generator: Adobe Illustrator 26.3.1, SVG Export Plug-In . SVG Version: 6.00 Build 0)  -->
<svg version="1.1" id="Layer_1" xmlns="http://www.w3.org/2000/svg" xmlns:xlink="http://www.w3.org/1999/xlink" x="0px" y="0px"
	 viewBox="0 0 512 512" style="enable-background:new 0 0 512 512;" xml:space="preserve">
<style type="text/css">
	.st0{fill:none;stroke:#DD7B6C;stroke-width:5;stroke-miterlimit:10;}
	.st1{fill-rule:evenodd;clip-rule:evenodd;fill:#DD7B6C;}
	.st2{fill-rule:evenodd;clip-rule:evenodd;fill:#FFFFFF;}
</style>
<rect width="512" height="512"/>
<path class="st0" d="M33.7,259.7v-184c0-22.1,17.9-40,40-40H256"/>
<path class="st0" d="M479.2,258.9v184c0,22.1-17.9,40-40,40H256.9"/>
<g id="HD2-OES-2">
	<g>
		<path class="st1" d="M377,435.4c-1.1-37-6.7-66.7-14.9-90.6h51.3c15.9,27.5,24.3,58.8,24.3,90.6H377z M294,258.2
			c46.2,9.8,86.8,37.2,113.1,76.5h-48.8C340.8,291.2,314.5,269.2,294,258.2z M157.9,334.7h-52.1c27.3-40.8,70-68.8,118.4-77.5
			C203.4,267.8,176,289.8,157.9,334.7z M139.3,435.4h-64c0-31.8,8.3-63.1,24.3-90.6h54.6C146,368.7,140.4,398.4,139.3,435.4z
			 M367.5,435.4H263.2v-90.6h88.9C362.1,374,367.2,404.5,367.5,435.4z M348.1,334.7h-85v-10.1l0,0l25.6-57.5
			C318,282.1,336.5,307.5,348.1,334.7z M253.1,435.4H148.8c0.2-30.8,5.4-61.4,15.4-90.6h88.9V435.4z M253.1,257.5v77.2h-85
			C182.8,300.3,208.5,268.8,253.1,257.5z"/>
		<path class="st2" d="M263.2,297.8l53.7-140.9l-53.7,16.8V73l-53.7,144.3l53.7-16.8V297.8z"/>
		<path class="st2" d="M156,253.3l10.5,16.8c-11,6-21.3,13.1-30.7,21.2l-12.5-12.5C132.9,268.7,143.9,260.1,156,253.3z M202.4,235.4
			l6.7,17.9c-11.8,3-23.3,7.2-34.3,12.4l-9.9-17.3C176.9,242.7,189.5,238.3,202.4,235.4z M249.7,230.5v17.2
			c-10.1,0.2-20.2,1.2-30.2,3.1l-5.5-17.7C225.9,231.3,237.8,230.4,249.7,230.5z M311.1,237.7c12.6,2.8,24.8,6.9,36.6,12.1
			l-8.7,14.5c-10.9-5-22.3-8.9-33.9-11.5l4-12L311.1,237.7z M389.7,278.6l-12.5,12.5c-8.5-9.1-18.5-16.7-29.6-22.4l9.9-14.1
			C369.5,260.7,380.4,268.8,389.7,278.6z"/>
	</g>
</g>
</svg>
