<?xml version="1.0" encoding="utf-8"?>
<!-- Generator: Adobe Illustrator 26.3.1, SVG Export Plug-In . SVG Version: 6.00 Build 0)  -->
<svg version="1.1" id="Layer_1" xmlns="http://www.w3.org/2000/svg" xmlns:xlink="http://www.w3.org/1999/xlink" x="0px" y="0px"
	 viewBox="0 0 512 512" style="enable-background:new 0 0 512 512;" xml:space="preserve">
<style type="text/css">
	.st0{fill:none;stroke:#DD7B6C;stroke-width:5;stroke-miterlimit:10;}
	.st1{fill-rule:evenodd;clip-rule:evenodd;fill:#DD7B6C;}
	.st2{fill:#FFFFFF;}
</style>
<rect width="512" height="512"/>
<path class="st0" d="M33.7,259.7v-184c0-22.1,17.9-40,40-40H256"/>
<path class="st0" d="M479.2,258.9v184c0,22.1-17.9,40-40,40H256.9"/>
<g>
	<path class="st1" d="M376.9,433.8c-1.1-37.1-6.7-66.9-15-90.8h51.4c16,27.6,24.4,58.9,24.4,90.8H376.9z M309.8,266.6v-6.2
		c39.8,12.3,74.1,37.9,97.2,72.5h-48.9C345,300.1,326.8,279.5,309.8,266.6z M235.8,332.9h-68.4c8.3-20.6,21.4-38.9,38.1-53.5v33.3
		h30.3V332.9z M157.2,332.9h-52.3c23.8-35.6,59.5-61.6,100.6-73.5v7.2C188.6,279.5,170.4,300,157.2,332.9z M138.5,433.8H74.3
		c0-31.9,8.4-63.2,24.4-90.8h54.8C145.2,367,139.6,396.8,138.5,433.8z M367.3,433.8H262.7V343h89.2
		C361.9,372.3,367.1,402.9,367.3,433.8z M163.5,343h89.2v90.8H148C148.3,402.9,153.5,372.3,163.5,343z M347.9,332.9h-68.4v-20.2
		h30.3v-33.3C326.6,294,339.6,312.3,347.9,332.9L347.9,332.9z"/>
	<g>
		<rect x="222.4" y="110.8" class="st2" width="10.1" height="50.5"/>
		<rect id="Rectangle_1_copy" x="222.4" y="178.1" class="st2" width="10.1" height="50.5"/>
		<rect id="Rectangle_1_copy_2" x="222.4" y="245.4" class="st2" width="10.1" height="50.5"/>
		<rect id="Rectangle_1_copy_3" x="252.6" y="80.6" class="st2" width="10.1" height="43.7"/>
		<rect id="Rectangle_1_copy_4" x="252.6" y="134.4" class="st2" width="10.1" height="50.5"/>
		<rect id="Rectangle_1_copy_5" x="252.6" y="201.7" class="st2" width="10.1" height="53.8"/>
		<rect id="Rectangle_1_copy_9" x="252.6" y="269" class="st2" width="10.1" height="53.8"/>
		<rect id="Rectangle_1_copy_6" x="282.9" y="110.8" class="st2" width="10.1" height="50.5"/>
		<rect id="Rectangle_1_copy_7" x="282.9" y="178.1" class="st2" width="10.1" height="50.5"/>
		<rect id="Rectangle_1_copy_8" x="282.9" y="245.4" class="st2" width="10.1" height="50.5"/>
	</g>
</g>
</svg>
