<?xml version="1.0" encoding="utf-8"?>
<!-- Generator: Adobe Illustrator 26.3.1, SVG Export Plug-In . SVG Version: 6.00 Build 0)  -->
<svg version="1.1" id="Layer_1" xmlns="http://www.w3.org/2000/svg" xmlns:xlink="http://www.w3.org/1999/xlink" x="0px" y="0px"
	 viewBox="0 0 512 512" style="enable-background:new 0 0 512 512;" xml:space="preserve">
<style type="text/css">
	.st0{fill:none;stroke:#DD7B6C;stroke-width:5;stroke-miterlimit:10;}
	.st1{fill-rule:evenodd;clip-rule:evenodd;fill:#DD7B6C;}
	.st2{fill-rule:evenodd;clip-rule:evenodd;fill:#FFFFFF;}
</style>
<rect width="512" height="512"/>
<path class="st0" d="M33.7,259.7v-184c0-22.1,17.9-40,40-40H256"/>
<path class="st0" d="M479.2,258.9v184c0,22.1-17.9,40-40,40H256.9"/>
<g>
	<path class="st1" d="M377.2,435c-1.1-36.9-6.7-66.6-14.9-90.5h51.2c15.9,27.5,24.3,58.7,24.3,90.5H377.2z M349.6,315.5l21-21
		c14.2,11.4,26.5,24.9,36.7,40.1h-48.7C355.9,328,352.9,321.7,349.6,315.5z M143.4,294.3l23.4,22.5c-3.1,5.8-5.8,11.7-8.2,17.8h-52
		C116.6,319.3,129.1,305.7,143.4,294.3z M139.8,435H75.9c0-31.8,8.3-63,24.3-90.5h54.5C146.6,368.4,140.9,398.1,139.8,435z
		 M367.7,435H263.6v-90.5h0.4l29.8,26.8l26.8-26.8h31.9C362.3,373.7,367.5,404.3,367.7,435z M164.7,344.6h30.8l27.8,26.8l29.8-26.8
		h0.4V435H149.4C149.6,404.3,154.8,373.7,164.7,344.6z M168.7,334.5c1.6-3.7,3.3-7.3,5.1-10.9l11.3,10.9H168.7L168.7,334.5z
		 M342.7,322.4c2.1,4,4,8,5.7,12.1h-17.8L342.7,322.4z"/>
	<path class="st2" d="M299.5,297.7l10.2,10.1l23.8-23.5l17,16.8L292.7,358l-17-16.8l23.8-23.5l-10.2-10.1l-17,13.4H257l0,0h-13.5
		l-16.8-13.4l-10.1,10.1l23.5,23.5L223.3,358l-57-57l16.8-16.8l23.5,23.5l10.1-10.1l-60.3-57v-70.4c0,0,13.9,0.1,23.5,0
		C178.3,93.1,253.5,90,253.5,90l5.1-0.1V90l3.4,0.1c0,0,76.4,3.1,74.8,80.4c9.7,0.1,23.8,0,23.8,0v70.3L299.5,297.7z M285.3,291
		c4.6,0,8.4-3.7,8.4-8.4s-3.7-8.4-8.4-8.4c-4.6,0-8.4,3.7-8.4,8.4S280.7,291,285.3,291z M285.3,260.8c4.6,0,8.4-3.7,8.4-8.4
		c0-4.6-3.7-8.4-8.4-8.4c-4.6,0-8.4,3.7-8.4,8.4C277,257.1,280.7,260.8,285.3,260.8z M258.5,307.7c4.6,0,8.4-3.7,8.4-8.4
		c0-4.6-3.7-8.4-8.4-8.4c-4.6,0-8.4,3.7-8.4,8.4C250.2,304,253.9,307.7,258.5,307.7z M258.5,277.6c4.6,0,8.4-3.7,8.4-8.4
		c0-4.6-3.7-8.4-8.4-8.4c-4.6,0-8.4,3.7-8.4,8.4C250.2,273.8,253.9,277.6,258.5,277.6z M258.5,244.1c4.6,0,8.4-3.7,8.4-8.4
		c0-4.6-3.7-8.4-8.4-8.4c-4.6,0-8.4,3.7-8.4,8.4C250.2,240.3,253.9,244.1,258.5,244.1z M231.7,291c4.6,0,8.4-3.7,8.4-8.4
		s-3.7-8.4-8.4-8.4c-4.6,0-8.4,3.7-8.4,8.4S227.1,291,231.7,291z M231.7,260.8c4.6,0,8.4-3.7,8.4-8.4c0-4.6-3.7-8.4-8.4-8.4
		c-4.6,0-8.4,3.7-8.4,8.4C223.3,257.1,227.1,260.8,231.7,260.8z M320.5,170.4h-124v46.9l26.8,20.1l30.2-23.5h8.6l30.9,23.5
		l27.5-20.1V170.4z"/>
</g>
</svg>
