<?xml version="1.0" encoding="utf-8"?>
<!-- Generator: Adobe Illustrator 26.3.1, SVG Export Plug-In . SVG Version: 6.00 Build 0)  -->
<svg version="1.1" id="Layer_1" xmlns="http://www.w3.org/2000/svg" xmlns:xlink="http://www.w3.org/1999/xlink" x="0px" y="0px"
	 viewBox="0 0 512 512" style="enable-background:new 0 0 512 512;" xml:space="preserve">
<style type="text/css">
	.st0{fill:none;stroke:#DD7B6C;stroke-width:5;stroke-miterlimit:10;}
	.st1{fill-rule:evenodd;clip-rule:evenodd;fill:#DD7B6C;}
	.st2{fill-rule:evenodd;clip-rule:evenodd;fill:#FFFFFF;}
</style>
<rect width="512" height="512"/>
<path class="st0" d="M33.7,259.7v-184c0-22.1,17.9-40,40-40H256"/>
<path class="st0" d="M479.2,258.9v184c0,22.1-17.9,40-40,40H256.9"/>
<g id="HD2-OSS-2">
	<path id="base_copy" class="st1" d="M362,339.3h51.5c16,27.6,24.4,59,24.4,90.9h-60.9C375.8,393.1,370.2,363.2,362,339.3z
		 M293.7,252.4c46.4,9.8,87.1,37.4,113.5,76.8h-49C340.7,285.5,314.3,263.4,293.7,252.4z M348,329.2h-85.3v-77.4
		C307.5,263,333.3,294.6,348,329.2z M163.4,339.3h89.2v90.9H148C148.2,399.2,153.4,368.5,163.4,339.3z M252.6,251.7v77.4h-85.2
		C182.2,294.6,207.9,263,252.6,251.7z M157.1,329.2h-52.3c27.4-41,70.3-69,118.8-77.8C202.7,262,175.2,284.1,157.1,329.2z
		 M138.4,430.2H74.2c0-31.9,8.4-63.3,24.4-90.9h54.8C145.2,363.2,139.5,393.1,138.4,430.2z M352,339.3c10,29.3,15.2,60,15.4,90.9
		H262.7v-90.9H352z"/>
	<path id="Shape_33_copy" class="st2" d="M400.8,305.6c0,0-49.6-65.7-144.8-63.8c-0.1,0-0.2-0.1-0.3-0.1
		C160.3,240,107.9,309,107.9,309s-16.6-50.6,3.4-74.1c24.7-28.9,64.8-17.3,70.7-16.8c10,0.8,6.7-3.4,6.7-3.4s-9.4-12.2-23.6-10.1
		c-32.1,4.7-16.8-20.2-16.8-20.2c19.8-32.9,66-20.5,78-17.7c4.4,1,2.8-2.5,2.8-2.5s-19.8-7.6-20.2-16.8
		c-1.3-32.8,47.1-26.9,47.1-26.9h1.8v0.3c8.7-0.7,46.3-1.9,45.1,27c-0.4,9.2-20.1,16.8-20.1,16.8s-1.6,3.5,2.7,2.5
		c11.9-2.8,58-15.1,77.7,17.7c0,0,15.2,24.9-16.8,20.2c-14.1-2.1-23.5,10.1-23.5,10.1s-3.2,4.1,6.7,3.4c5.9-0.5,45.8-12.1,70.4,16.8
		C420,258.4,400.8,305.6,400.8,305.6z"/>
</g>
</svg>
