<?xml version="1.0" encoding="utf-8"?>
<!-- Generator: Adobe Illustrator 26.3.1, SVG Export Plug-In . SVG Version: 6.00 Build 0)  -->
<svg version="1.1" id="Layer_1" xmlns="http://www.w3.org/2000/svg" xmlns:xlink="http://www.w3.org/1999/xlink" x="0px" y="0px"
	 viewBox="0 0 512 512" style="enable-background:new 0 0 512 512;" xml:space="preserve">
<style type="text/css">
	.st0{fill:none;stroke:#C9B269;stroke-width:5;stroke-miterlimit:10;}
	.st1{fill-rule:evenodd;clip-rule:evenodd;fill:#C9B269;}
	.st2{fill-rule:evenodd;clip-rule:evenodd;fill:#FFFFFF;}
</style>
<rect width="512" height="512"/>
<path class="st0" d="M33.7,259.7v-184c0-22.1,17.9-40,40-40H256"/>
<path class="st0" d="M479.2,258.9v184c0,22.1-17.9,40-40,40H256.9"/>
<g>
	<path class="st1" d="M312.3,218.4v-87.6h93.9l-48.9,87.6H312.3z M154.7,218.4l-48.9-87.6h93.9v87.6H154.7z M294.4,331.1L256,400
		l-38.4-68.9H294.4z"/>
	<path class="st2" d="M162.1,318.6V231h28.2v31.3h31.3V231h28.2v87.6H162.1z"/>
	<path class="st2" d="M262.3,318.6V231h28.2v31.3h31.3V231h28.2v87.6H262.3z"/>
	<path class="st2" d="M212.2,218.4v-87.6h28.2v31.3h31.3v-31.3h28.2v87.6H212.2z"/>
	<path class="st1" d="M71.3,440.7v-62.6l62.6,62.6H71.3z M440.7,440.7v-62.6l-62.6,62.6H440.7z M440.7,71.3v62.6l-62.6-62.6H440.7z
		 M71.3,71.3v62.6l62.6-62.6H71.3z"/>
</g>
</svg>
