<?xml version="1.0" encoding="utf-8"?>
<!-- Generator: Adobe Illustrator 26.3.1, SVG Export Plug-In . SVG Version: 6.00 Build 0)  -->
<svg version="1.1" id="Layer_1" xmlns="http://www.w3.org/2000/svg" xmlns:xlink="http://www.w3.org/1999/xlink" x="0px" y="0px"
	 viewBox="0 0 512 512" style="enable-background:new 0 0 512 512;" xml:space="preserve">
<style type="text/css">
	.st0{fill:none;stroke:#C9B269;stroke-width:5;stroke-miterlimit:10;}
	.st1{fill-rule:evenodd;clip-rule:evenodd;fill:#C9B269;}
	.st2{fill-rule:evenodd;clip-rule:evenodd;fill:#FFFFFF;}
</style>
<rect width="512" height="512"/>
<path class="st0" d="M33.7,259.7v-184c0-22.1,17.9-40,40-40H256"/>
<path class="st0" d="M479.2,258.9v184c0,22.1-17.9,40-40,40H256.9"/>
<g>
	<path id="Shape_4_copy" class="st1" d="M374.1,431.3h-5.6c-1-34.5-6.3-62.2-13.9-84.5h47.9c7.2,12.4,12.8,25.8,16.6,39.6
		L374.1,431.3z M291,266c43.1,9.1,81,34.7,105.5,71.4H351C334.7,296.8,310.2,276.3,291,266z M341.5,337.4h-79.3v-72
		C303.9,275.8,327.8,305.2,341.5,337.4z M169.9,346.8h82.9v84.5h-97.3C155.8,402.5,160.6,374,169.9,346.8z M252.9,265.4v72h-79.2
		C187.3,305.2,211.2,275.9,252.9,265.4z M164.1,337.4h-48.6c25.5-38.1,65.3-64.2,110.4-72.3C206.5,275,180.9,295.4,164.1,337.4z
		 M160.6,346.8c-7.7,22.3-12.9,50-13.9,84.5h-9.1L93,386.6c3.8-13.9,9.4-27.3,16.7-39.9H160.6z M262.3,346.8h83
		c9.3,27.2,14.1,55.8,14.3,84.5h-97.3V346.8z"/>
	<path id="Shape_4_copy_3" class="st1" d="M71.3,440.7v-62.6l62.6,62.6H71.3z M440.7,440.7v-62.6l-62.6,62.6H440.7z M440.7,71.3
		v62.6l-62.6-62.6H440.7z M71.3,71.3v62.6l62.6-62.6H71.3z"/>
	<path class="st2" d="M227.8,177.8V90.1h-78.2l56.3,87.6H227.8z"/>
	<path class="st2" d="M287.3,90.1h78.2l-56.3,87.6h-21.9V90.1z"/>
	<path class="st2" d="M243.5,90.1h28.2v103.3h28.2L259.1,256l-43.8-62.6h28.2"/>
</g>
</svg>
