<?xml version="1.0" encoding="utf-8"?>
<!-- Generator: Adobe Illustrator 26.3.1, SVG Export Plug-In . SVG Version: 6.00 Build 0)  -->
<svg version="1.1" id="Layer_1" xmlns="http://www.w3.org/2000/svg" xmlns:xlink="http://www.w3.org/1999/xlink" x="0px" y="0px"
	 viewBox="0 0 512 512" style="enable-background:new 0 0 512 512;" xml:space="preserve">
<style type="text/css">
	.st0{fill:none;stroke:#C9B269;stroke-width:5;stroke-miterlimit:10;}
	.st1{fill-rule:evenodd;clip-rule:evenodd;fill:#C9B269;}
	.st2{fill-rule:evenodd;clip-rule:evenodd;fill:#FFFFFF;}
</style>
<rect width="512" height="512"/>
<path class="st0" d="M33.7,259.7v-184c0-22.1,17.9-40,40-40H256"/>
<path class="st0" d="M479.2,258.9v184c0,22.1-17.9,40-40,40H256.9"/>
<g>
	<path class="st1" d="M71.3,440.7v-62.6l62.6,62.6H71.3z M440.7,440.7v-62.6l-62.6,62.6H440.7z M440.7,71.3v62.6l-62.6-62.6H440.7z
		 M71.3,71.3v62.6l62.6-62.6H71.3z"/>
	<g>
		<path id="Shape_18_copy" class="st2" d="M290.1,313l-28.3-28.3l-4.4,0l-92.9,92.9c0,0-7,5.8-17.6-4.3l0,0
			c-0.1-0.1-0.1-0.2-0.2-0.2s-0.2-0.1-0.2-0.2h0c-10.2-10.6-4.4-17.7-4.4-17.7l93-93v-4.4l-28.6-28.6l-0.2-9l55.3-55.3h8.9l31,31
			l6.6-6.6c5.5-5.5,15.9,7.1,15.9,7.1l0,0c2.2,2,11.4,10.5,6.5,15.4l-6.6,6.6l30.7,30.7l0,8.8l-55.3,55.3L290.1,313z"/>
		<path id="Shape_19_copy" class="st2" d="M230.5,179.4l-6.6,6.6l-27.4,26.2c0,0-4.3,4.5-12.5-4c0,0-6.4-8-3.2-11.6
			c6.2-6.9,19.8-22.7,25.3-28.2l6.6-6.6c5.5-5.5,20.4-18.7,27.5-24.6c5.1-4.2,12.3,2.5,12.3,2.5c8.2,8.9,3.3,13.2,3.3,13.2
			L230.5,179.4z"/>
		<path id="Shape_19_copy_2" class="st2" d="M355.7,307.7l-6.6,6.6l-27.4,26.2c0,0-4.3,4.5-12.5-4c0,0-6.4-8-3.2-11.6
			c6.2-6.9,19.8-22.7,25.3-28.2l6.6-6.6c5.5-5.5,20.4-18.7,27.5-24.6c5.1-4.2,12.3,2.5,12.3,2.5c8.2,8.9,3.3,13.2,3.3,13.2
			L355.7,307.7z"/>
	</g>
</g>
</svg>
