<?xml version="1.0" encoding="utf-8"?>
<!-- Generator: Adobe Illustrator 26.3.1, SVG Export Plug-In . SVG Version: 6.00 Build 0)  -->
<svg version="1.1" id="Layer_1" xmlns="http://www.w3.org/2000/svg" xmlns:xlink="http://www.w3.org/1999/xlink" x="0px" y="0px"
	 viewBox="0 0 512 512" style="enable-background:new 0 0 512 512;" xml:space="preserve">
<style type="text/css">
	.st0{fill:none;stroke:#C9B269;stroke-width:5;stroke-miterlimit:10;}
	.st1{fill-rule:evenodd;clip-rule:evenodd;fill:#C9B269;}
	.st2{fill-rule:evenodd;clip-rule:evenodd;fill:#FFFFFF;}
</style>
<rect width="512" height="512"/>
<path class="st0" d="M33.7,259.7v-184c0-22.1,17.9-40,40-40H256"/>
<path class="st0" d="M479.2,258.9v184c0,22.1-17.9,40-40,40H256.9"/>
<g id="HD2-OPS">
	<path id="Shape_4_copy_2" class="st1" d="M72.3,439.7v-62.3l62.3,62.3H72.3z M439.7,439.7v-62.3l-62.3,62.3H439.7z M439.7,72.3
		v62.3l-62.3-62.3H439.7z M72.3,72.3v62.3l62.3-62.3H72.3z"/>
	<path id="Shape_11_copy" class="st1" d="M256,209.3c0,0-28.7,1.6-43.6,18.7c0,0-7.9,4.6-12.5,0s0-12.5,0-12.5
		c15.5-13.7,35.4-21.4,56-21.8V209.3z M256,209.3c0,0,29.2,2.1,44.4,19.7c0,0,8,4.7,12.7,0c4.7-4.7,0-12.8,0-12.8
		c-15.7-14.1-36-22.1-57.1-22.4V209.3z"/>
	<path id="Shape_11_copy_3" class="st1" d="M256,181.3c0,0,40.8,1.1,56,18.7c0,0,15,12,19.7,7.2c1.9-1.9,5.5-5.6,2.1-10.3
		c-5.1-7.1-18.7-15.6-18.7-15.6c-18.1-10.1-38.4-15.5-59.2-15.6V181.3z M256,181.3c0,0-40.1,1.5-55.1,19.5c0,0-14.8,12.3-19.4,7.4
		c-1.8-1.9-5.4-5.7-2-10.6c5-7.3,18.4-16,18.4-16c17.6-10.4,37.7-15.9,58.1-16V181.3z"/>
	<path id="Shape_11_copy_5" class="st1" d="M256,153.3c0,0-56.7,6.9-71.6,24.9c0,0-13.7,13.9-21.8,9.3c-2.3-1.3-3.4-7.6,0-12.5
		c5-7.3,28-21.8,28-21.8s31.7-15.6,65.4-15.6V153.3z M256,153.3c0,0,57.2,6.5,72.3,24.1c0,0,13.9,13.6,22,9.2
		c2.4-1.3,3.4-7.4,0-12.2C345.3,167.2,322,153,322,153s-32-15.3-66-15.3V153.3z"/>
	<g id="SOS">
		<path id="Rectangle_1_copy_3" class="st2" d="M181.3,277.8c-0.7-10.1-0.6-12.1-3.1-15.6c-2.5-3.5-6.2,0-6.2,0
			c-9.7,14.1,12.5,24.9,12.5,24.9c5.8,3.3,11,7.5,15.4,12.5h0.1c15.4,15.1,12.2,31.1,12.2,31.1s5.2,34.2-34,34.2
			s-37.3-31.1-37.3-31.1v-15.6h28c0.2,7.7,2.4,15.1,6.2,21.8c2.5,3.5,6.2,0,6.2,0c9.6-14.1-12.4-24.9-12.4-24.9
			c-5.8-3.3-10.9-7.5-15.3-12.5h-0.4c-15.5-15.1-12.3-31.1-12.3-31.1s-5.3-34.2,34.2-34.2s34.2,40.5,34.2,40.5H181.3z"/>
		<path id="Shape_12_copy_3" class="st2" d="M256,365c0,0-37.4,1.9-37.4-52.9v-18.7c0-61.3,37.4-56,37.4-56s37.4-6.4,37.4,56V312
			C293.4,366.7,256,365,256,365z M262.2,299.6v-28c0,0-0.1-12.5-6.2-12.5s-6.2,12.5-6.2,12.5v59.2c0,0,0.1,12.5,6.2,12.5
			c6.2,0,6.2-12.5,6.2-12.5V299.6z"/>
		<path id="Rectangle_1_copy_4" class="st2" d="M340.1,277.8c-0.7-10.1-0.6-12.1-3.1-15.6c-2.5-3.5-6.2,0-6.2,0
			c-9.7,14.1,12.5,24.9,12.5,24.9c5.8,3.3,11,7.5,15.4,12.5h0.1c15.4,15.1,12.2,31.1,12.2,31.1s5.2,34.2-34,34.2
			s-37.3-31.1-37.3-31.1v-15.6h28c0.2,7.7,2.4,15.1,6.2,21.8c2.5,3.5,6.2,0,6.2,0c9.6-14.1-12.4-24.9-12.4-24.9
			c-5.8-3.3-10.9-7.5-15.3-12.5h-0.4c-15.5-15.1-12.3-31.1-12.3-31.1s-5.3-34.2,34.2-34.2s34.2,40.5,34.2,40.5H340.1z"/>
	</g>
</g>
</svg>
