<?xml version="1.0" encoding="utf-8"?>
<!-- Generator: Adobe Illustrator 26.3.1, SVG Export Plug-In . SVG Version: 6.00 Build 0)  -->
<svg version="1.1" id="Layer_1" xmlns="http://www.w3.org/2000/svg" xmlns:xlink="http://www.w3.org/1999/xlink" x="0px" y="0px"
	 viewBox="0 0 512 512" style="enable-background:new 0 0 512 512;" xml:space="preserve">
<style type="text/css">
	.st0{fill:none;stroke:#C9B269;stroke-width:5;stroke-miterlimit:10;}
	.st1{fill-rule:evenodd;clip-rule:evenodd;fill:#C9B269;}
	.st2{fill-rule:evenodd;clip-rule:evenodd;fill:#FFFFFF;}
</style>
<rect width="512" height="512"/>
<path class="st0" d="M33.7,259.7v-184c0-22.1,17.9-40,40-40H256"/>
<path class="st0" d="M479.2,258.9v184c0,22.1-17.9,40-40,40H256.9"/>
<g>
	<path class="st1" d="M71.3,440.7v-62.6l62.6,62.6H71.3z M440.7,440.7v-62.6l-62.6,62.6H440.7z M440.7,71.3v62.6l-62.6-62.6H440.7z
		 M71.3,71.3v62.6l62.6-62.6H71.3z"/>
	<path class="st2" d="M140.2,378.1l84.5-106.4l31.3,34.4l28.2-3.1l68.9,75.1H140.2z"/>
	<path class="st2" d="M190.3,296.7l25-28.2c0,0-20.3-85.6-18.8-122.1h-25C171.5,146.5,169,251.8,190.3,296.7z"/>
	<path class="st2" d="M205.9,146.5c0,0,8.6-1.5,12.5-6.3c3.9-4.8,32.1-16.2,46.9,0c14.8,16.2,40.7-6.3,40.7-6.3l18.8-9.4
		c0,0,10.7-2.7,6.3,21.9s3.1,40.7,3.1,40.7s11.5,22.3,3.1,25c-9.7,3.1-11.8,7.8-15.6,9.4c-11,4-22.9,5.1-34.4,3.1
		c0,0-13.1-6.1-18.8-9.4c-8-4.6-27,2-31.3,6.3c-4.3,4.3-14.7,15.4-18.8,6.3C214.3,218.7,211.1,203.6,205.9,146.5z"/>
</g>
</svg>
